<svg version="1.2" xmlns="http://www.w3.org/2000/svg" viewBox="0 0 1560 400" width="156" height="40">
	<title>zeeswap- logo design-ai_2</title>
	<defs>
		<linearGradient id="g1" x1="222.5" y1="208.2" x2="349.8" y2="251.5" gradientUnits="userSpaceOnUse">
			<stop offset="0" stop-color="#564fa1"/>
			<stop offset="1" stop-color="#2ba2da"/>
		</linearGradient>
		<linearGradient id="g2" x1="63.7" y1="66.9" x2="352.7" y2="66.9" gradientUnits="userSpaceOnUse">
			<stop offset="0" stop-color="#44bbeb"/>
			<stop offset="1" stop-color="#5c6cb2"/>
		</linearGradient>
		<linearGradient id="g3" x1="257.6" y1="147.8" x2="102.3" y2="173.2" gradientUnits="userSpaceOnUse">
			<stop offset="0" stop-color="#564fa1"/>
			<stop offset="1" stop-color="#2ba2da"/>
		</linearGradient>
		<linearGradient id="g4" x1="943.9" y1="301" x2="987.1" y2="98" gradientUnits="userSpaceOnUse">
			<stop offset="0" stop-color="#537ce6"/>
			<stop offset="1" stop-color="#48b0e3"/>
		</linearGradient>
	</defs>
	<style>
		.s0 { display: none;fill: #ffffff } 
		.s1 { fill: url(#g1) } 
		.s2 { fill: url(#g2) } 
		.s3 { fill: url(#g3) } 
		.s4 { fill: #c6bdf4 } 
		.s5 { fill: #ededed } 
		.s6 { fill: #dad6f7 } 
		.s7 { fill: url(#g4) } 
	</style>
	<path id="&lt;Path&gt;" class="s0" d="m1781-449v1300h-2000v-1300z"/>
	<g id="Layer 1">
		<g id="&lt;Group&gt;">
			<g id="&lt;Group&gt;">
				<path id="&lt;Path&gt;" class="s1" d="m154.3 332.2l132.3-100.1 76.5 31.9 10.2 80.4-65.9 51.6z"/>
				<g id="&lt;Group&gt;">
					<path id="&lt;Path&gt;" class="s2" d="m342.7 103.1l10 78.9-198.4 150.2-79.6-31.5-11-86.6 196-145.2z"/>
				</g>
				<path id="&lt;Path&gt;" class="s3" d="m112.6 4.3l147.1 64.6-132.6 98.2-73.4-31.9-10.2-80.4z"/>
				<g id="&lt;Group&gt;">
					<g id="&lt;Group&gt;">
						<path id="&lt;Path&gt;" class="s4" d="m205.2 200.8l-65.5 50.4-10.9-82 65.5-50.4z"/>
					</g>
					<g id="&lt;Group&gt;">
						<path id="&lt;Path&gt;" class="s5" d="m205.2 200.8l76.4 31.5-65.5 50.4-76.4-31.5 65.5-50.4z"/>
					</g>
					<g id="&lt;Group&gt;">
						<path id="&lt;Path&gt;" class="s6" d="m281.6 232.3l-76.4-31.5-10.9-82 76.4 31.6z"/>
					</g>
				</g>
			</g>
		</g>
		<path id="ZEESWAP" class="s7" aria-label="ZEESWAP"  d="m419.7 151.7l73.8-0.8-81.6 109.4q-7.2 24.9 4.9 36l124.6-0.5q7.5-22.2-0.3-41.6l-75.4 1.4 80.2-107.2q9.6-21.1-2.3-38.2l-117.4-0.2q-11 17.6-6.5 41.7zm281.4-41.5l-114.9 3.4q-4.4 2.1-5.7 6.8l-11 167.4q1.2 6.7 6.5 7.7l114.1-4.5q13-19 2.8-40.6l-81.9 2.5 3.3-37.9 66.8-2.8q10.6-15.9 1.4-33.7l-65.5 1.4 2.2-31.3 79.8-2.5q8.1-16.8 2.1-35.9zm151.6 0l-114.9 3.4q-4.4 2.1-5.7 6.8l-11 167.4q1.2 6.7 6.5 7.7l114.1-4.5q13-19 2.8-40.6l-81.9 2.5 3.3-37.9 66.8-2.8q10.6-15.9 1.5-33.7l-65.6 1.4 2.2-31.3 79.8-2.5q8.1-16.8 2.1-35.9zm28 164q-8-27.7 9.2-42.9 31.4 18.4 45.6 22.7 26.3-0.3 28.9-13.2 0.6-10.4-16.1-20l-31.4-15.3q-29.4-15.6-30.5-44.1 1.1-16.3 11.2-29.4 10.3-13 23-17.1 12.8-4.1 30.4-3 32.2 1.9 56.5 18.3 1 23.1-14.4 40.1-29.7-22.2-47.5-20.7-16.7-2-17.7 12-0.6 7.9 23.6 20.5 27.7 11.2 41 25.7 13.4 14.5 11.9 35.3-1.9 28.1-26.1 43.1-15.4 10.7-44.4 8.9-27.7-3.5-53.2-20.9zm287 18l30.3-179.5q-18.9-8.4-37.4-2l-19.4 106.9-11.4-105.1q-14.4-5.5-36.2-1l-25.1 102.9-5-104.5q-22.9-4-41 1.2l16.2 184.7q18.8 4.1 39-0.6l28.7-106.7 16.7 104.7q27.2 5.7 44.6-1zm108.4-181.5l-64 178.3q13.3 11.4 40.5 7.7l11.2-33 45.3-5.6 8.8 32.7q26.8 5.2 43.5-5.8l-48.8-175.8q-17.3-10.6-36.5 1.5zm15.6 56.7l10.6 56.5-29.8 3.6zm112.3-54.5l-13 8.3-15.5 167q14.8 12.7 39.9 3.9l5.5-52.5 14.2-1.5 39.6-9.2q39.2-9.6 45.3-43.2 6.2-33.7-0.4-52-6.5-18.3-30.6-22.4-24.2-4.1-85 1.6zm25.8 34.2q46.4-5.5 51.9 6.4 5.4 11.7-0.9 28.8-6.2 17.1-56.6 20.5z"/>
	</g>
</svg>